<?xml version="1.0" standalone="no"?>
<!DOCTYPE svg PUBLIC "-//W3C//DTD SVG 20010904//EN"
 "http://www.w3.org/TR/2001/REC-SVG-20010904/DTD/svg10.dtd">
<svg version="1.0" xmlns="http://www.w3.org/2000/svg"
 width="450.000000pt" height="450.000000pt" viewBox="0 0 450.000000 450.000000"
 preserveAspectRatio="xMidYMid meet">
<metadata>
Created by potrace 1.10, written by Peter Selinger 2001-2011
</metadata>
<g transform="translate(0.000000,450.000000) scale(0.100000,-0.100000)"
fill="#0b5394" stroke="none">
<path d="M2320 4496 c0 -2 7 -7 16 -10 8 -3 12 -2 9 4 -6 10 -25 14 -25 6z"/>
<path d="M2187 4460 c-26 -16 -50 -30 -53 -30 -2 0 -21 -11 -42 -23 -38 -25
-277 -163 -347 -202 -22 -12 -107 -62 -190 -110 -265 -155 -408 -238 -475
-275 -36 -20 -126 -72 -200 -115 -74 -43 -187 -109 -251 -146 -64 -37 -133
-78 -155 -91 -21 -14 -43 -27 -49 -29 -5 -2 -36 -19 -67 -37 l-58 -34 0 -1118
0 -1119 78 -43 c42 -23 85 -47 94 -53 37 -22 425 -249 458 -267 19 -11 60 -35
90 -53 30 -18 67 -39 82 -47 22 -11 231 -132 348 -200 80 -48 306 -180 325
-190 51 -28 212 -120 225 -128 22 -13 118 -70 165 -97 83 -48 84 -49 119 -29
17 10 56 32 86 48 30 17 60 34 65 38 9 8 228 134 325 188 25 13 50 28 55 32 6
4 71 42 145 85 74 43 160 93 190 110 30 18 145 84 255 147 110 63 238 137 285
165 196 114 356 207 375 218 11 6 46 26 78 44 l57 33 0 1118 0 1117 -82 48
c-46 27 -108 63 -138 81 -149 87 -409 239 -445 259 -22 12 -98 56 -170 97
-351 202 -472 272 -505 294 -19 13 -38 24 -41 24 -4 0 -38 19 -75 41 -38 23
-87 52 -109 64 -22 12 -85 48 -140 80 -148 85 -157 90 -195 113 -46 29 -57 28
-113 -8z m113 -19 c3 -2 -4 -1 -15 3 -15 5 -17 4 -9 -4 6 -6 18 -13 25 -14 46
-9 68 -19 62 -29 -4 -6 0 -8 9 -5 9 4 30 -5 49 -21 19 -15 47 -31 63 -35 16
-4 30 -15 33 -26 3 -11 9 -17 14 -15 7 5 46 -11 59 -25 3 -3 31 -19 63 -35 66
-34 76 -40 137 -79 25 -16 72 -44 105 -61 157 -83 165 -89 160 -114 -3 -14 3
-17 28 -15 39 3 69 -5 62 -16 -3 -4 11 -11 31 -15 26 -4 34 -10 30 -21 -3 -8
-2 -13 3 -10 5 3 21 -4 37 -16 15 -13 24 -17 20 -9 -7 10 -4 11 10 3 23 -13
65 -47 45 -36 -9 5 -12 3 -7 -5 4 -6 12 -8 18 -5 6 4 13 3 17 -2 3 -5 24 -18
46 -28 22 -11 50 -29 63 -40 12 -11 22 -16 22 -11 0 4 9 0 20 -10 12 -11 27
-20 34 -21 15 -2 126 -64 126 -70 0 -3 -13 2 -29 11 -25 12 -29 13 -27 0 1 -8
6 -18 11 -22 4 -5 5 -2 0 6 -6 11 -4 13 11 7 10 -5 28 -10 39 -11 32 -4 146
-71 137 -80 -4 -4 1 -5 10 -2 20 7 46 -18 26 -26 -7 -3 -2 -5 12 -4 14 1 24
-3 23 -10 -1 -6 5 -10 15 -8 9 1 39 -13 66 -32 26 -19 45 -29 40 -21 -6 10 -4
10 9 -1 9 -7 14 -18 10 -24 -3 -6 -1 -7 6 -3 6 4 24 -2 40 -13 16 -12 33 -21
38 -21 6 0 18 -9 28 -20 10 -12 24 -19 31 -16 7 3 14 -4 17 -15 3 -10 1 -19
-3 -19 -12 0 -12 -2127 -1 -2134 15 -9 0 -55 -20 -61 -10 -4 -19 -11 -19 -16
0 -6 -5 -7 -11 -4 -6 4 -16 0 -22 -7 -20 -25 -81 -56 -104 -53 -12 1 -20 -2
-17 -6 2 -4 -5 -11 -17 -14 -11 -4 -18 -9 -16 -12 3 -2 16 1 29 7 23 11 23 11
-1 -8 -14 -11 -31 -17 -40 -14 -9 3 -12 1 -7 -7 4 -6 4 -11 -1 -10 -15 4 -83
-31 -83 -42 0 -6 -7 -8 -16 -5 -8 3 -13 2 -10 -3 3 -5 -6 -8 -21 -8 l-27 -1
22 18 c18 15 19 19 6 24 -10 4 -13 2 -8 -6 5 -7 2 -9 -7 -6 -10 4 -15 -1 -16
-14 -1 -12 6 -22 18 -25 15 -4 11 -9 -23 -25 -78 -36 -166 -84 -188 -103 -8
-7 -37 -26 -65 -41 -95 -54 -150 -84 -175 -96 -14 -7 -29 -16 -35 -21 -66 -51
-113 -71 -132 -56 -15 13 -26 7 -29 -16 -1 -8 2 -13 7 -9 5 3 6 10 3 16 -4 6
-1 9 6 6 25 -8 21 -26 -7 -33 -15 -3 -38 -16 -51 -28 -13 -12 -25 -21 -28 -19
-9 5 -25 1 -21 -6 3 -4 -32 -25 -76 -47 -45 -22 -89 -48 -99 -57 -10 -10 -24
-15 -34 -11 -12 4 -15 3 -10 -5 4 -7 1 -12 -8 -12 -8 0 -16 -5 -18 -11 -2 -6
-15 -12 -30 -12 -14 -1 -24 -7 -21 -13 2 -6 -4 -15 -14 -18 -10 -4 -19 -2 -21
3 -2 6 -8 9 -12 6 -5 -3 -7 -12 -3 -20 4 -11 1 -13 -13 -8 -13 5 -15 3 -9 -7
6 -10 4 -12 -8 -7 -9 3 -18 -1 -21 -10 -5 -12 -9 -13 -21 -3 -13 11 -14 10 -9
-5 5 -13 4 -16 -4 -11 -7 4 -12 2 -12 -4 0 -6 -12 -16 -27 -23 -16 -6 -30 -14
-33 -17 -17 -18 -62 -40 -72 -34 -7 5 -8 3 -3 -6 6 -10 4 -12 -9 -7 -10 4 -15
3 -11 -3 3 -6 -2 -13 -12 -17 -10 -3 -26 -13 -35 -20 -9 -9 -23 -12 -30 -7 -7
4 -10 4 -6 -1 9 -10 -40 -37 -53 -29 -5 3 -6 -2 -3 -11 5 -11 2 -14 -12 -8
-12 4 -15 3 -10 -5 5 -8 0 -12 -14 -12 -14 0 -19 -4 -14 -13 5 -6 -3 -4 -16 6
-14 9 -38 22 -53 28 -26 10 -27 12 -10 25 17 12 16 13 -5 7 -16 -4 -34 2 -54
17 -17 12 -28 16 -24 9 5 -10 3 -9 -6 1 -7 8 -25 21 -40 27 -16 7 -28 17 -28
23 0 5 -9 10 -19 10 -11 0 -26 6 -33 14 -8 8 -23 16 -34 18 -10 2 -18 9 -17
16 2 6 -4 9 -12 6 -8 -4 -15 -1 -15 5 0 6 -7 11 -15 11 -8 0 -15 4 -15 10 0 5
-7 7 -15 4 -8 -4 -15 -2 -15 3 0 5 -14 17 -30 27 -17 9 -28 22 -25 27 4 5 1 9
-4 9 -6 0 -11 -6 -11 -12 -1 -7 -9 -3 -19 9 -10 12 -21 19 -25 16 -3 -4 -6 -1
-6 6 0 7 -4 10 -9 7 -4 -3 -34 10 -66 29 -31 19 -61 35 -66 35 -5 0 -9 3 -9 8
0 4 -18 16 -40 26 -22 10 -37 23 -33 29 4 6 1 7 -7 2 -7 -4 -15 -3 -19 2 -3 5
-28 19 -54 31 -30 14 -45 27 -41 34 5 8 1 9 -11 4 -11 -4 -24 0 -34 9 -16 17
-80 58 -93 61 -5 1 -13 2 -19 3 -5 0 -7 6 -3 12 4 7 1 10 -7 7 -7 -2 -18 -1
-24 4 -32 28 -118 77 -126 72 -5 -3 -9 0 -9 5 0 6 -7 11 -15 11 -8 0 -15 4
-15 8 0 5 -16 14 -35 22 -19 7 -32 17 -29 22 3 4 -1 8 -9 8 -8 0 -47 19 -86
43 -101 60 -135 76 -145 69 -5 -3 -6 -1 -3 5 3 5 -14 19 -39 31 -24 12 -47 29
-51 38 -4 10 -8 12 -13 5 -4 -8 -15 -4 -31 11 -14 13 -30 23 -37 24 -28 2 -32
5 -32 19 0 14 -12 20 -34 16 -5 -1 -6 6 -4 16 4 14 -1 18 -21 19 -14 1 -20 -1
-13 -3 6 -3 12 -10 12 -16 -1 -7 -10 -1 -21 13 -12 14 -23 24 -25 23 -2 -1
-17 5 -34 15 l-30 17 0 1104 0 1103 53 38 c28 21 55 36 59 33 4 -2 24 7 44 21
21 14 42 22 48 19 6 -3 8 -3 4 2 -12 13 58 56 79 49 14 -5 15 -4 4 4 -11 8 -9
11 10 17 13 4 36 16 50 26 14 10 29 16 33 12 3 -3 6 -1 6 6 0 7 4 10 9 7 5 -4
11 0 14 6 3 10 8 10 23 -2 17 -14 18 -14 6 1 -11 15 -8 20 21 38 19 12 39 21
46 21 6 0 11 5 11 11 0 5 4 7 10 4 5 -3 10 -1 10 5 0 6 8 9 18 6 10 -4 27 1
38 10 18 14 18 15 -4 4 -13 -7 -26 -9 -29 -6 -3 3 7 11 23 18 16 7 32 17 36
23 4 5 10 6 14 2 4 -3 20 5 37 19 17 14 38 23 48 21 13 -3 16 0 12 11 -4 10
-2 13 5 8 7 -4 12 -3 12 2 0 5 24 22 53 36 28 15 66 36 82 46 63 41 68 43 60
30 -5 -8 -3 -11 6 -8 8 3 13 10 12 16 -1 5 4 16 12 22 8 7 15 10 15 7 0 -3 24
10 52 29 29 19 58 34 65 34 7 0 13 5 13 11 0 6 9 9 20 6 11 -3 18 -1 14 4 -3
5 2 9 11 9 9 0 14 4 11 9 -3 5 1 12 10 15 8 3 12 2 9 -4 -3 -6 1 -7 10 -4 9 4
13 9 10 12 -3 4 19 18 49 33 31 14 52 29 48 34 -4 4 4 4 17 0 16 -5 21 -4 17
4 -4 6 -5 11 -2 11 2 0 12 3 22 7 13 5 15 3 9 -8 -5 -8 -5 -11 1 -6 5 5 7 11
6 14 -2 3 16 18 40 33 39 25 45 26 61 12 18 -16 24 -3 6 15 -7 7 7 18 45 38
31 16 56 32 56 36 0 4 10 11 21 14 12 4 42 20 68 36 25 16 52 27 59 24 7 -2
10 -1 7 5 -5 9 152 90 174 90 6 0 11 5 11 10 0 6 -18 1 -40 -10 -22 -11 -40
-18 -40 -15 0 2 17 13 38 24 39 20 35 21 82 -18z m790 -461 c8 -5 11 -10 5
-10 -5 0 -17 5 -25 10 -8 5 -10 10 -5 10 6 0 17 -5 25 -10z"/>
<path d="M2200 4336 c0 -12 -5 -16 -15 -12 -9 3 -15 -1 -15 -11 0 -13 -3 -13
-15 -3 -13 11 -14 10 -9 -5 6 -15 5 -16 -17 -5 -23 13 -23 12 -9 -6 8 -10 10
-16 6 -12 -7 6 -58 -22 -76 -42 -10 -10 -45 -30 -98 -55 -29 -13 -67 -35 -85
-47 -18 -13 -38 -22 -44 -20 -7 2 -13 -1 -13 -6 0 -6 -12 -13 -27 -17 -19 -4
-23 -9 -14 -14 10 -6 9 -10 -4 -15 -26 -9 -42 -7 -25 4 8 5 11 10 7 10 -5 0
-21 -12 -36 -27 -15 -16 -50 -34 -76 -41 -35 -9 -45 -16 -36 -22 10 -6 3 -14
-28 -29 -23 -12 -47 -19 -53 -15 -6 4 -8 3 -5 -3 8 -12 -16 -36 -26 -27 -3 3
-23 -8 -44 -25 -21 -17 -53 -33 -71 -37 -19 -4 -32 -13 -32 -22 0 -8 -3 -13
-6 -9 -4 3 -13 -1 -21 -9 -8 -8 -19 -11 -25 -8 -6 4 -8 2 -5 -3 10 -17 -53
-36 -69 -22 -9 8 -14 8 -14 1 0 -6 6 -13 13 -15 7 -4 3 -8 -10 -12 -13 -4 -23
-11 -23 -16 0 -10 -78 -34 -105 -31 -19 2 -19 1 -2 -9 18 -10 18 -11 1 -24
-10 -7 -25 -11 -34 -8 -13 4 -13 4 0 -6 13 -9 12 -11 -3 -11 -20 0 -80 -30
-85 -43 -2 -4 -20 -16 -40 -27 -21 -11 -48 -27 -62 -36 -23 -15 -23 -15 -6 0
11 9 15 16 8 16 -7 0 -17 -9 -24 -19 -10 -16 -16 -18 -32 -9 -18 10 -19 9 -8
-4 10 -13 8 -17 -18 -28 -16 -7 -30 -16 -30 -21 0 -8 -34 -22 -63 -24 -9 -1
-27 -12 -39 -24 -24 -26 -78 -52 -92 -44 -5 4 -6 1 -2 -5 7 -12 -32 -38 -53
-33 -7 1 -10 -2 -6 -8 3 -6 -5 -15 -18 -20 -14 -6 -28 -14 -31 -20 -4 -6 -7
-480 -6 -1053 l0 -1043 22 -17 c38 -30 43 -33 58 -36 8 -2 17 -8 18 -13 2 -5
7 -7 12 -4 4 3 13 -2 20 -10 7 -8 20 -15 29 -15 14 0 14 -2 1 -11 -13 -9 -12
-10 2 -5 18 5 128 -60 128 -77 0 -5 7 -7 15 -3 8 3 15 1 15 -4 0 -6 7 -10 16
-10 18 0 106 -69 100 -79 -3 -4 4 -7 15 -7 19 0 18 1 -3 18 -22 18 -22 18 15
1 26 -12 33 -19 25 -25 -10 -7 -9 -8 2 -6 8 1 35 -7 59 -19 35 -16 41 -22 25
-26 -16 -4 -16 -5 4 -6 13 0 21 -5 18 -10 -3 -4 6 -6 19 -3 14 2 25 0 25 -6 0
-5 15 -16 33 -23 17 -7 38 -19 44 -25 7 -7 18 -15 25 -17 10 -4 9 -8 -2 -17
-12 -9 -11 -10 8 -5 15 4 33 0 50 -11 15 -10 33 -17 41 -16 8 2 10 -1 5 -9 -5
-9 -2 -10 9 -6 8 3 17 0 20 -6 3 -7 27 -24 53 -37 27 -14 50 -28 52 -32 2 -3
36 -23 75 -43 40 -19 87 -47 106 -60 19 -14 42 -25 52 -25 11 0 18 -5 16 -11
-1 -6 5 -14 13 -16 13 -4 13 -3 0 7 -13 10 -13 11 0 7 8 -2 15 -10 15 -18 0
-9 9 -13 23 -12 14 2 21 -1 17 -7 -3 -6 2 -13 12 -16 10 -3 33 -12 50 -21 28
-14 31 -19 20 -31 -10 -13 -9 -14 8 -5 23 12 48 6 39 -9 -3 -5 0 -9 7 -7 27 3
40 -1 34 -11 -3 -5 -1 -10 5 -10 7 0 24 -9 40 -20 15 -11 31 -16 35 -12 5 4 6
0 3 -8 -4 -10 2 -15 19 -16 13 -1 34 -14 47 -29 13 -15 29 -24 35 -21 6 4 24
-2 40 -13 16 -12 34 -21 40 -21 6 0 11 -4 11 -8 0 -4 14 -13 31 -19 17 -7 28
-17 24 -22 -3 -6 -2 -11 4 -11 5 0 13 5 16 11 4 6 13 8 20 5 8 -3 19 2 25 10
7 8 19 14 26 14 8 0 14 4 14 8 0 10 61 33 71 26 5 -3 6 3 2 13 -3 10 -3 15 1
11 5 -4 26 7 49 23 22 16 46 29 54 29 7 0 13 5 13 10 0 7 7 7 21 0 11 -7 23
-9 27 -6 3 3 0 6 -7 6 -7 0 -9 5 -5 12 5 7 3 8 -6 3 -9 -6 -11 -4 -6 4 5 7 15
10 23 7 8 -3 12 -2 9 3 -3 5 5 12 19 15 14 4 25 11 25 16 0 5 8 7 18 3 9 -3
14 -2 10 2 -11 12 49 45 69 39 15 -5 16 -4 3 5 -8 6 -13 11 -10 12 3 0 14 2
25 4 11 2 21 9 23 15 2 5 9 7 14 4 6 -4 8 -2 5 3 -4 6 0 14 9 17 8 3 12 2 9
-3 -3 -5 0 -13 6 -17 7 -4 9 -3 5 4 -6 10 43 52 62 52 5 0 15 7 22 15 7 8 16
12 21 9 5 -3 9 -2 9 3 0 4 26 22 58 38 31 17 60 34 63 38 3 4 13 5 22 1 13 -5
16 -2 11 10 -7 19 6 21 26 4 13 -11 13 -11 3 1 -11 12 -3 20 46 45 33 17 93
51 133 76 40 25 81 48 92 53 10 4 31 17 48 28 24 18 34 19 53 11 21 -10 23 -9
20 9 -2 11 2 22 10 26 8 3 12 9 9 14 -3 5 3 9 12 9 10 0 26 7 36 17 13 12 18
13 18 3 0 -7 9 -3 20 10 18 20 30 25 74 29 5 1 6 4 3 8 -12 11 60 53 80 47 15
-5 15 -4 3 5 -12 8 -11 11 5 17 11 4 36 18 56 30 33 21 38 21 58 8 24 -18 29
-7 5 11 -15 10 -11 14 24 33 22 11 43 18 46 15 3 -4 6 -2 6 4 0 11 70 49 83
45 5 -1 5 3 1 9 -5 8 -2 10 8 7 8 -4 16 -1 17 5 4 16 4 2031 1 2084 -2 23 -7
40 -11 37 -5 -3 -14 0 -21 5 -61 50 -81 64 -73 51 7 -12 5 -12 -11 1 -10 9
-36 23 -56 33 -43 19 -57 36 -31 36 15 0 16 2 3 10 -9 6 -17 5 -21 -2 -4 -6
-27 1 -63 20 -32 16 -54 32 -49 34 4 3 2 3 -6 1 -7 -2 -29 8 -47 22 -19 14
-48 31 -64 37 -17 5 -27 15 -23 21 3 6 1 7 -5 3 -6 -4 -23 1 -38 10 -25 17
-25 18 -8 31 22 16 15 17 -23 2 -15 -5 -25 -7 -21 -4 4 4 -25 23 -62 42 -38
20 -67 39 -65 43 3 4 -6 11 -20 14 -14 4 -35 16 -47 28 -12 12 -33 23 -46 24
-13 2 -32 9 -41 17 -9 8 -24 17 -33 20 -11 4 -16 14 -13 27 4 19 2 20 -11 9
-13 -10 -17 -10 -23 0 -5 7 -11 12 -15 11 -11 -4 -76 33 -76 43 0 4 -4 5 -10
2 -5 -3 -10 -1 -10 5 0 6 -4 9 -8 6 -5 -3 -18 4 -30 14 -12 11 -28 20 -35 20
-8 0 -20 7 -27 15 -7 8 -21 15 -32 15 -18 0 -19 2 -7 17 13 15 12 15 -11 3
-24 -13 -24 -12 -10 5 14 17 13 18 -2 12 -10 -3 -28 -2 -40 3 -13 5 -18 9 -13
10 13 1 -66 39 -83 40 -6 0 -11 5 -10 11 2 6 -4 13 -12 14 -28 5 -70 32 -62
40 4 5 -1 6 -10 2 -10 -3 -19 0 -22 9 -3 9 -10 13 -15 9 -5 -3 -13 0 -17 6 -5
8 -3 9 6 4 9 -5 11 -4 6 4 -5 7 -16 9 -28 5 -14 -4 -18 -2 -14 5 4 6 2 11 -4
11 -7 0 -25 9 -41 21 -16 11 -29 17 -29 13 0 -4 -8 2 -17 12 -10 10 -25 20
-33 22 -31 7 -80 44 -73 55 4 7 -2 5 -12 -3 -10 -8 -16 -10 -12 -3 4 6 3 14
-3 18 -5 3 -10 1 -10 -5 0 -6 -5 -8 -10 -5 -6 4 -7 11 -4 17 4 6 2 8 -4 4 -6
-3 -13 -2 -17 4 -9 14 -52 12 -58 -2 -4 -10 -8 -9 -16 2 -9 13 -11 12 -11 -4z
m90 -29 c19 -13 49 -30 65 -39 17 -8 75 -41 130 -73 55 -32 116 -67 135 -78
19 -11 142 -82 272 -158 131 -77 240 -139 244 -139 3 0 18 -9 33 -19 14 -11
47 -30 71 -44 25 -13 86 -48 135 -77 50 -29 110 -64 135 -77 24 -14 56 -33 70
-42 14 -10 59 -37 100 -60 41 -23 82 -46 90 -51 8 -5 42 -24 75 -43 33 -19 80
-47 105 -61 25 -15 57 -31 73 -37 l27 -11 0 -1048 c0 -1048 0 -1049 -20 -1055
-12 -4 -92 -47 -178 -97 -458 -265 -537 -311 -574 -335 -21 -12 -40 -23 -42
-23 -3 0 -53 -29 -113 -64 -59 -35 -161 -94 -227 -132 -65 -38 -138 -80 -162
-94 -23 -14 -71 -41 -106 -61 -35 -20 -101 -58 -148 -86 -47 -27 -96 -56 -110
-64 -14 -7 -46 -27 -73 -42 l-47 -29 -40 26 c-22 14 -43 26 -47 26 -5 0 -32
16 -60 35 -29 19 -55 35 -57 35 -5 0 -141 77 -176 100 -29 18 -545 316 -620
358 -25 13 -49 28 -55 32 -5 5 -68 42 -140 83 -71 41 -186 107 -255 147 -270
157 -328 190 -339 190 -8 0 -11 285 -11 1048 l0 1047 43 20 c37 18 110 60 372
213 33 20 87 51 120 69 33 19 98 57 145 85 47 28 103 61 125 73 22 12 85 48
140 80 55 32 172 99 260 150 148 85 243 140 495 289 52 30 97 55 100 56 3 0
21 -10 40 -23z m-640 -307 c-8 -5 -19 -10 -25 -10 -5 0 -3 5 5 10 8 5 20 10
25 10 6 0 3 -5 -5 -10z m-520 -300 c-8 -5 -19 -10 -25 -10 -5 0 -3 5 5 10 8 5
20 10 25 10 6 0 3 -5 -5 -10z m-693 -442 c-3 -8 -6 -5 -6 6 -1 11 2 17 5 13 3
-3 4 -12 1 -19z m3048 -2416 c-3 -3 -11 0 -18 7 -9 10 -8 11 6 5 10 -3 15 -9
12 -12z"/>
<path d="M3296 3662 c-2 -4 4 -8 14 -8 10 0 16 4 14 8 -3 4 -9 8 -14 8 -5 0
-11 -4 -14 -8z"/>
<path d="M2223 3482 c-45 -48 -103 -127 -103 -141 0 -5 16 -28 35 -51 19 -23
35 -47 35 -53 0 -7 -18 -20 -39 -30 -23 -10 -57 -40 -81 -71 -39 -52 -41 -57
-41 -125 0 -55 5 -80 23 -113 22 -41 49 -71 57 -63 4 5 -39 67 -54 77 -5 4
-10 42 -10 87 0 74 2 81 33 119 17 23 32 44 32 49 0 4 19 17 43 28 23 11 43
28 45 38 2 9 -10 36 -27 59 -31 42 -39 68 -22 68 5 0 11 9 14 21 4 13 10 18
18 13 7 -4 10 -3 5 4 -5 9 34 66 59 84 15 11 27 10 20 -2 -4 -6 -2 -9 4 -8 9
3 111 -109 111 -122 0 -3 -12 -19 -27 -35 -37 -39 -57 -76 -37 -68 8 3 14 8
14 12 0 3 14 21 30 40 38 43 37 57 -3 102 -17 20 -46 56 -64 79 l-32 42 -38
-40z"/>
<path d="M2315 3211 c68 -22 112 -63 138 -129 32 -79 14 -171 -43 -224 -25
-23 -25 -27 0 -21 10 3 22 14 25 24 4 10 10 19 15 19 11 0 28 55 33 111 5 47
-15 117 -43 156 -24 33 -91 73 -119 72 -22 -1 -23 -2 -6 -8z"/>
<path d="M3175 2934 c-55 -7 -111 -15 -125 -18 -81 -16 -120 -26 -165 -39 -27
-8 -76 -22 -107 -31 -31 -8 -99 -29 -150 -46 -122 -41 -170 -47 -190 -26 -9 9
-24 16 -34 16 -12 0 -10 -5 11 -22 20 -16 40 -21 77 -20 27 0 55 5 62 11 6 5
23 12 36 15 14 2 52 14 85 26 54 20 217 65 272 76 12 2 34 9 49 14 31 12 141
29 233 36 138 11 290 -37 364 -113 38 -38 45 -53 27 -53 -5 0 -10 -5 -10 -11
0 -8 4 -8 14 0 17 14 41 -11 33 -33 -4 -9 -1 -13 6 -10 19 7 47 -95 47 -171 0
-38 2 -66 5 -63 3 3 6 38 6 79 2 193 -135 347 -338 379 -37 6 -77 12 -88 14
-11 2 -65 -3 -120 -10z"/>
<path d="M1095 2925 c-55 -12 -195 -87 -195 -104 0 -4 -13 -21 -30 -39 -16
-18 -33 -44 -36 -58 -3 -13 -9 -24 -13 -24 -11 0 -31 -102 -31 -157 0 -64 10
-113 22 -113 6 0 7 11 3 28 -14 51 -13 130 2 178 23 75 52 134 68 140 8 4 15
12 15 20 0 8 4 14 10 14 5 0 17 9 27 19 28 30 140 84 181 88 192 17 303 2 582
-77 41 -11 82 -22 90 -24 8 -2 29 -8 45 -15 30 -12 47 -17 120 -41 43 -14 115
-14 129 0 5 5 -9 6 -32 3 -39 -5 -82 5 -197 47 -103 37 -320 96 -385 105 -25
4 -67 11 -94 16 -68 13 -210 10 -281 -6z"/>
<path d="M1227 2803 c-2 -1 -25 -4 -53 -6 -87 -9 -156 -52 -207 -129 -21 -33
-37 -208 -19 -208 7 0 11 29 11 81 0 101 25 148 106 205 65 45 215 57 354 27
36 -8 77 -17 91 -19 14 -3 53 -16 88 -29 34 -14 69 -25 77 -25 8 0 37 -9 63
-21 111 -49 159 -69 193 -80 34 -11 37 -15 42 -63 5 -47 45 -156 57 -156 3 0
6 9 6 20 0 11 -3 20 -6 20 -7 0 -44 98 -46 120 -1 8 -2 25 -3 37 -1 18 -12 26
-58 39 -32 9 -60 19 -63 23 -3 3 -30 17 -60 30 -30 13 -68 30 -85 37 -16 7
-33 10 -37 8 -4 -3 -8 0 -8 6 0 7 -6 10 -12 7 -7 -2 -33 5 -58 15 -44 19 -148
45 -220 54 -39 5 -150 10 -153 7z"/>
<path d="M3139 2800 c-8 -4 -45 -13 -84 -19 -69 -12 -130 -29 -150 -42 -5 -3
-27 -9 -47 -13 -21 -4 -38 -10 -38 -15 0 -4 -19 -13 -42 -20 -61 -18 -118 -43
-118 -53 0 -4 -9 -8 -20 -8 -11 0 -37 -7 -58 -17 -20 -9 -40 -15 -44 -15 -5 1
-8 -4 -8 -12 0 -11 12 -9 50 10 27 13 55 24 60 24 6 0 36 13 68 29 139 69 415
141 543 141 200 0 320 -108 307 -275 -3 -33 0 -56 6 -58 7 -3 11 19 10 62 -2
91 -14 151 -30 151 -8 0 -14 5 -14 10 0 14 -55 70 -69 70 -6 0 -11 4 -11 9 0
4 -26 17 -57 27 -60 19 -227 28 -254 14z"/>
<path d="M2095 2790 c-3 -5 -2 -10 4 -10 5 0 13 5 16 10 3 6 2 10 -4 10 -5 0
-13 -4 -16 -10z"/>
<path d="M2001 2604 c0 -11 3 -14 6 -6 3 7 2 16 -1 19 -3 4 -6 -2 -5 -13z"/>
<path d="M2514 2511 c0 -25 -4 -57 -9 -71 -5 -16 -4 -22 3 -15 9 10 32 92 32
118 0 7 -6 14 -12 14 -9 0 -13 -17 -14 -46z"/>
<path d="M3582 2510 c0 -19 2 -27 5 -17 2 9 2 25 0 35 -3 9 -5 1 -5 -18z"/>
<path d="M3691 2484 c0 -11 3 -14 6 -6 3 7 2 16 -1 19 -3 4 -6 -2 -5 -13z"/>
<path d="M2171 2454 c0 -11 3 -14 6 -6 3 7 2 16 -1 19 -3 4 -6 -2 -5 -13z"/>
<path d="M3693 2445 c0 -8 4 -12 9 -9 4 3 8 9 8 15 0 5 -4 9 -8 9 -5 0 -9 -7
-9 -15z"/>
<path d="M951 2434 c0 -10 4 -28 9 -39 7 -16 8 -13 6 13 -3 35 -16 58 -15 26z"/>
<path d="M3540 2435 c0 -8 5 -15 10 -15 6 0 10 7 10 15 0 8 -4 15 -10 15 -5 0
-10 -7 -10 -15z"/>
<path d="M895 2430 c-3 -6 1 -7 9 -4 18 7 21 14 7 14 -6 0 -13 -4 -16 -10z"/>
<path d="M2230 2429 c0 -5 5 -7 10 -4 6 3 10 8 10 11 0 2 -4 4 -10 4 -5 0 -10
-5 -10 -11z"/>
<path d="M2660 2431 c0 -6 4 -12 8 -15 5 -3 9 1 9 9 0 8 -4 15 -9 15 -4 0 -8
-4 -8 -9z"/>
<path d="M700 2246 l0 -166 83 0 c95 0 144 19 166 64 10 21 10 34 3 52 -14 30
-57 58 -74 47 -7 -4 -31 -8 -53 -9 l-40 0 37 15 c51 21 48 30 -7 23 l-45 -5 0
42 0 41 41 -4 c42 -4 60 -18 58 -46 -3 -32 2 -40 20 -40 24 0 51 36 51 67 0
12 -11 34 -24 49 -22 26 -29 28 -120 32 l-96 4 0 -166z m73 127 c-7 -2 -13 -9
-13 -15 0 -6 -8 -17 -17 -24 -11 -8 -13 -13 -5 -14 6 0 12 -11 12 -24 0 -13 7
-29 15 -36 13 -11 13 -14 -3 -29 -10 -9 -16 -24 -14 -33 2 -10 -2 -18 -10 -18
-10 0 -13 22 -12 93 0 50 1 95 2 100 1 4 14 7 30 6 15 0 21 -3 15 -6z m134
-18 c15 -16 17 -29 3 -20 -6 3 -7 -1 -4 -9 3 -9 11 -13 17 -9 6 3 7 1 3 -5
-17 -27 -50 -3 -42 31 1 6 1 8 -2 4 -2 -4 -10 -3 -17 3 -7 6 -27 12 -44 13
-17 1 -31 6 -31 10 0 13 102 -3 117 -18z m3 -69 c0 -2 -7 -6 -15 -10 -8 -3
-15 -1 -15 4 0 6 7 10 15 10 8 0 15 -2 15 -4z m18 -91 c11 -21 3 -46 -24 -72
-17 -18 -23 -16 -19 5 2 9 4 21 4 25 1 5 6 5 11 2 13 -8 13 -1 -4 40 -23 53 3
53 32 0z m-79 19 c23 -5 31 -12 31 -28 0 -33 -19 -46 -67 -46 l-43 0 0 40 c0
44 9 48 79 34z m-91 -74 c16 -21 19 -30 9 -30 -8 0 -19 10 -25 23 -10 20 -11
19 -5 -8 4 -24 3 -28 -7 -18 -10 10 -8 63 3 63 2 0 13 -13 25 -30z m112 -24
c0 -9 -7 -12 -21 -9 -16 4 -17 8 -7 14 19 13 28 11 28 -5z m-53 -2 c-3 -3 -12
-4 -19 -1 -8 3 -5 6 6 6 11 1 17 -2 13 -5z"/>
<path d="M995 2245 l0 -166 34 3 34 3 0 160 0 160 -34 3 -34 3 0 -166z m44 -5
c-1 -77 -5 -140 -9 -140 -9 0 -10 17 -12 146 0 101 4 134 18 134 2 0 4 -63 3
-140z"/>
<path d="M1190 2388 c-57 -39 -73 -70 -72 -135 1 -71 13 -105 47 -135 58 -51
126 -59 201 -24 56 26 84 68 91 141 6 51 -29 121 -77 153 -47 31 -143 31 -190
0z m144 -10 c-2 -4 8 -8 23 -10 34 -4 77 -62 69 -94 -4 -13 -1 -24 6 -26 8 -3
7 -16 -6 -49 -20 -50 -38 -69 -82 -87 -33 -14 -106 -13 -97 1 3 4 18 5 33 2
16 -4 31 -2 35 5 3 5 11 8 16 5 5 -4 9 -1 9 4 0 6 6 11 14 11 21 0 50 69 50
122 1 25 -2 44 -5 42 -4 -2 -9 3 -12 10 -3 8 -3 17 1 19 4 2 2 3 -4 1 -7 -1
-22 5 -35 14 -13 9 -32 15 -41 14 -10 -2 -18 2 -18 8 0 12 -71 -15 -81 -32 -4
-6 -12 -7 -18 -4 -7 5 -10 2 -9 -6 2 -7 -2 -12 -8 -11 -7 1 -10 -19 -8 -57 3
-77 8 -91 43 -115 27 -18 32 -35 11 -35 -20 0 -71 54 -69 74 1 11 -1 28 -5 37
-18 42 18 150 45 133 5 -3 9 -1 9 4 0 16 42 29 91 28 26 -1 45 -4 43 -8z m-4
-43 c38 -20 50 -43 50 -98 0 -38 -5 -49 -31 -71 -82 -70 -188 11 -157 120 6
24 18 36 46 47 47 20 57 20 92 2z"/>
<path d="M1392 2170 c-7 -11 -8 -20 -3 -20 9 0 24 30 18 36 -1 2 -8 -6 -15
-16z"/>
<path d="M1538 2393 c-29 -18 -48 -72 -39 -113 5 -19 23 -33 74 -58 37 -17 67
-38 67 -45 0 -37 -59 -50 -92 -20 -10 9 -19 14 -21 12 -1 -2 -15 -19 -32 -37
-16 -19 -25 -32 -20 -31 6 1 17 -1 25 -4 81 -33 155 -25 191 21 19 24 25 75
13 106 -6 16 -85 56 -110 56 -7 0 -18 9 -24 20 -9 16 -6 22 15 36 21 14 30 15
52 5 22 -10 29 -9 49 10 31 29 30 35 -7 48 -46 16 -110 13 -141 -6z m114 -23
c-5 -13 -4 -13 14 0 18 14 18 14 5 -3 -12 -15 -17 -16 -35 -4 -27 17 -72 4
-81 -24 -4 -10 -11 -19 -18 -19 -6 0 2 -13 17 -29 l27 -28 -25 0 c-14 0 -31 6
-37 13 -10 12 -8 13 6 8 15 -6 16 -5 3 16 -10 17 -10 24 -1 27 7 2 10 10 7 17
-7 19 51 43 102 42 15 -1 20 -6 16 -16z m-42 -121 c0 -6 7 -9 15 -5 9 3 15 0
15 -10 0 -8 5 -12 10 -9 25 16 45 -43 30 -85 -2 -3 -2 -8 -1 -12 0 -4 -6 -5
-14 -2 -8 4 -17 -1 -21 -10 -7 -19 -104 -24 -104 -5 0 6 -7 8 -16 5 -14 -5
-15 -4 -4 9 10 12 15 13 28 3 24 -20 102 -6 102 18 0 8 4 13 8 10 5 -3 6 8 4
24 -4 27 -29 45 -81 56 -28 6 -29 19 0 21 16 1 29 -3 29 -8z"/>
<path d="M1730 2374 l0 -34 51 0 50 0 -2 -127 -2 -128 37 -3 37 -3 -2 132 -1
133 46 -3 46 -3 0 37 0 36 -130 -2 -130 -1 0 -34z m47 -6 c-3 -8 -6 -5 -6 6
-1 11 2 17 5 13 3 -3 4 -12 1 -19z m69 1 c3 -5 14 -9 25 -9 14 0 18 -4 12 -12
-12 -20 -20 -218 -8 -218 6 0 3 -5 -5 -10 -12 -7 -16 -3 -21 18 -4 15 -7 43
-6 62 l0 35 7 -40 c6 -36 7 -33 9 26 2 102 -6 129 -40 136 -16 3 -29 9 -29 13
0 11 49 9 56 -1z m114 -2 c0 -9 -100 -1 -109 9 -3 3 20 4 52 2 31 -1 57 -7 57
-11z m-113 -104 c-3 -10 -5 -4 -5 12 0 17 2 24 5 18 2 -7 2 -21 0 -30z"/>
<path d="M2074 2373 c-9 -21 -22 -51 -29 -68 -53 -119 -95 -218 -95 -221 0 -2
17 -4 38 -4 34 0 39 3 51 35 l12 35 64 0 c63 0 63 0 75 -34 10 -32 14 -35 51
-34 21 0 39 2 39 3 0 3 -40 101 -96 232 -36 85 -41 93 -67 93 -23 0 -31 -7
-43 -37z m93 -73 c9 -19 15 -41 14 -47 -1 -7 2 -13 8 -13 5 0 12 -14 16 -30 4
-17 11 -28 16 -24 18 10 9 -13 -12 -32 -14 -12 -19 -14 -17 -5 4 17 -31 29
-89 30 -32 1 -49 -5 -69 -24 -37 -34 -46 -31 -28 8 8 17 19 44 25 59 10 26 39
47 39 28 0 -6 -5 -10 -11 -10 -5 0 -7 -4 -4 -10 13 -21 25 -9 37 35 7 25 15
45 18 45 3 0 12 -19 20 -42 16 -44 40 -63 40 -30 0 21 -27 92 -35 92 -2 0 -1
-8 2 -17 6 -16 5 -16 -10 -4 -14 11 -20 11 -32 1 -8 -7 -15 -18 -15 -25 0 -6
-6 -12 -14 -12 -11 0 -10 8 5 36 10 20 19 40 19 46 0 6 5 16 12 23 13 13 35
-14 65 -78z m70 -152 c0 -7 4 -21 8 -30 5 -12 2 -16 -9 -14 -29 4 -39 22 -21
40 20 19 22 20 22 4z m-217 -32 c0 -3 -4 -8 -10 -11 -5 -3 -10 -1 -10 4 0 6 5
11 10 11 6 0 10 -2 10 -4z"/>
<path d="M2183 2200 c1 -11 5 -20 9 -20 11 0 10 28 -1 35 -6 3 -9 -4 -8 -15z"/>
<path d="M2065 2200 c65 -17 102 -19 102 -4 0 11 -16 14 -66 13 -53 -1 -60 -2
-36 -9z"/>
<path d="M2250 2375 c0 -34 1 -35 40 -35 28 0 40 4 40 15 0 8 9 19 19 25 25
13 34 13 25 -1 -4 -8 0 -9 15 -4 24 7 26 -2 7 -27 -14 -19 -52 -26 -41 -8 3 6
1 10 -4 10 -7 0 -11 -47 -11 -135 l0 -135 35 0 36 0 -2 132 -1 132 46 -3 46
-3 0 35 0 35 -125 1 -125 1 0 -35z m70 0 c0 -8 -9 -15 -20 -15 -11 0 -20 5
-20 11 0 5 4 8 9 4 5 -3 12 -1 16 5 9 14 15 12 15 -5z m139 2 c10 -13 -2 -15
-39 -8 -4 1 21 20 26 21 1 0 7 -6 13 -13z m-76 -119 c8 -92 -1 -174 -17 -157
-12 12 -9 219 3 219 4 0 11 -28 14 -62z"/>
<path d="M2530 2246 l0 -166 35 0 35 0 0 155 c0 85 1 158 3 163 1 4 -15 8 -35
10 l-38 3 0 -165z m51 3 c0 -67 -4 -126 -9 -131 -6 -6 -7 30 -4 87 4 76 2 99
-9 106 -12 8 -12 11 1 19 13 9 13 10 0 11 -10 0 -11 2 -2 6 6 2 12 12 12 21 0
8 3 13 6 10 3 -3 5 -61 5 -129z"/>
<path d="M2688 2381 c-26 -23 -33 -36 -33 -69 0 -51 14 -67 83 -92 66 -25 77
-38 55 -62 -20 -22 -61 -23 -83 -3 -15 13 -19 12 -40 -10 -31 -32 -22 -48 36
-63 89 -23 165 23 167 101 1 46 -14 62 -73 82 -27 9 -54 23 -60 30 -30 36 34
72 69 41 18 -16 20 -15 41 14 12 17 21 33 19 34 -19 16 -56 26 -98 26 -42 0
-56 -5 -83 -29z m133 0 c9 -2 7 -31 -3 -31 -4 0 -8 4 -8 8 0 4 -16 8 -35 9
-28 1 -39 -5 -56 -28 -11 -16 -17 -29 -13 -29 3 0 1 -7 -6 -15 -6 -8 -8 -20
-4 -27 5 -10 4 -10 -6 -1 -30 28 2 122 37 109 7 -3 15 -1 18 3 4 7 44 8 76 2z
m-101 -101 c0 -10 54 -41 67 -39 23 4 35 -3 30 -15 -4 -10 -1 -13 7 -10 9 4
15 -6 18 -28 6 -41 1 -58 -17 -52 -10 4 -11 13 -5 34 7 24 5 30 -11 35 -11 4
-17 10 -14 15 3 5 -11 12 -30 16 -36 6 -65 27 -65 45 0 5 5 9 10 9 6 0 10 -4
10 -10z m70 -155 c15 3 31 2 34 -3 7 -12 -40 -25 -55 -16 -5 3 -16 0 -24 -6
-12 -10 -15 -9 -15 6 0 14 -3 15 -8 6 -11 -16 -42 -5 -36 13 4 10 14 11 40 3
20 -5 48 -6 64 -3z"/>
<path d="M2705 2360 c-3 -5 -1 -10 4 -10 6 0 11 5 11 10 0 6 -2 10 -4 10 -3 0
-8 -4 -11 -10z"/>
<path d="M2900 2375 c0 -35 0 -35 45 -35 l45 0 0 -128 0 -129 36 -1 35 -1 -3
129 -3 130 48 0 47 0 0 35 0 35 -125 0 -125 0 0 -35z m173 8 c4 9 6 9 6 -1 1
-7 -6 -15 -14 -18 -22 -9 -34 -61 -33 -149 0 -109 -1 -119 -9 -111 -5 4 -9 53
-9 109 -1 56 -5 116 -9 134 -6 26 -4 32 11 35 11 3 27 1 36 -4 10 -5 18 -3 21
5z m-83 -12 c0 -4 -11 -6 -25 -3 -14 2 -25 6 -25 8 0 2 11 4 25 4 14 0 25 -4
25 -9z"/>
<path d="M3187 2248 l2 -163 36 -3 35 -3 0 165 0 166 -37 0 -38 0 2 -162z m43
98 c0 -17 0 -67 1 -111 1 -123 0 -142 -10 -125 -5 8 -11 72 -13 141 -2 97 0
126 10 126 7 0 12 -13 12 -31z"/>
<path d="M3389 2395 c-61 -33 -83 -86 -80 -192 2 -52 57 -107 124 -123 49 -11
58 -11 101 8 35 16 50 30 61 56 17 41 19 56 5 56 -5 0 -6 -7 -3 -17 4 -10 2
-14 -4 -10 -7 5 -9 0 -6 -13 6 -24 -9 -26 -27 -5 -7 8 -18 15 -25 15 -7 0 -18
-7 -25 -15 -29 -34 -101 -10 -126 43 -23 50 -10 99 35 129 40 27 68 29 93 6
17 -15 20 -15 43 7 31 30 31 32 -4 53 -36 21 -125 22 -162 2z m114 -18 c-4 -6
0 -8 10 -4 10 3 17 2 17 -4 0 -6 6 -7 13 -3 9 5 9 4 1 -5 -8 -9 -17 -10 -30
-3 -48 25 -128 -8 -147 -59 -6 -16 -14 -29 -17 -29 -10 0 -10 -49 0 -55 6 -3
10 -14 10 -23 0 -10 19 -30 43 -45 42 -29 59 -30 137 -12 14 3 19 3 12 -1 -6
-3 -9 -11 -5 -16 4 -7 -2 -9 -15 -6 -14 4 -20 2 -15 -5 4 -6 -2 -8 -15 -5 -12
3 -22 2 -24 -4 -2 -5 -13 -5 -28 1 -14 5 -20 10 -15 11 6 0 3 5 -5 10 -20 13
-33 13 -25 0 8 -14 -7 -12 -26 3 -9 7 -14 18 -11 25 2 7 -2 11 -10 10 -8 -2
-13 6 -12 18 0 16 -4 21 -15 17 -14 -4 -14 -3 -1 7 10 8 11 13 4 16 -7 3 -10
22 -8 45 4 47 11 62 26 53 6 -4 8 -3 5 3 -4 6 1 19 9 29 9 10 13 12 9 4 -5
-12 -4 -12 7 1 23 28 137 52 121 26z"/>
<path d="M3661 2394 c-30 -21 -51 -71 -44 -106 6 -30 34 -52 96 -74 48 -17 59
-31 46 -56 -12 -22 -56 -24 -85 -3 -19 13 -23 12 -44 -10 -31 -33 -21 -48 39
-64 95 -24 161 17 161 101 0 53 -9 62 -92 93 -49 18 -60 39 -36 63 17 17 54
15 72 -3 13 -13 17 -12 35 11 12 15 21 31 21 36 0 29 -131 38 -169 12z m89
-18 c0 -6 5 -4 11 4 7 11 12 12 15 3 3 -7 13 -9 22 -6 14 6 15 5 2 -9 -8 -9
-17 -13 -20 -9 -3 3 -22 7 -42 9 -31 3 -40 -1 -59 -27 -12 -17 -27 -27 -32
-24 -6 3 -7 1 -3 -6 4 -6 11 -9 15 -7 4 3 12 -4 19 -14 9 -15 8 -19 -5 -24 -8
-4 -21 -2 -27 3 -15 13 -14 67 2 64 6 -2 9 4 6 12 -4 8 -1 15 6 15 6 0 18 6
25 14 17 16 65 18 65 2z m-30 -120 c0 -10 10 -14 30 -14 41 1 56 -15 55 -59
-2 -49 -13 -73 -31 -66 -8 3 -14 0 -14 -5 0 -13 -72 -11 -82 3 -5 6 -8 5 -8
-4 0 -11 -3 -11 -15 -1 -13 10 -13 15 -3 21 7 4 17 4 23 -1 10 -8 39 -13 61
-11 14 1 64 51 64 63 0 5 -4 7 -9 4 -8 -5 -23 16 -25 36 -1 3 -5 10 -10 15 -5
5 -6 3 -2 -4 11 -19 -19 -16 -35 3 -7 8 -21 13 -31 11 -20 -6 -25 9 -5 16 23
10 37 7 37 -7z"/>
<path d="M1456 2377 c3 -10 9 -15 12 -12 3 3 0 11 -7 18 -10 9 -11 8 -5 -6z"/>
<path d="M2860 2321 c0 -6 4 -13 10 -16 6 -3 7 1 4 9 -7 18 -14 21 -14 7z"/>
<path d="M2442 2285 c-5 -19 -7 -35 -3 -35 10 0 30 59 22 65 -4 2 -13 -11 -19
-30z"/>
<path d="M2900 2275 c-37 -38 -29 -49 9 -13 20 18 27 19 43 9 17 -11 18 -10 9
8 -18 33 -26 32 -61 -4z"/>
<path d="M3492 2298 c3 -7 -4 -21 -14 -32 -17 -18 -25 -46 -13 -46 8 0 45 64
45 78 0 6 -5 12 -11 12 -6 0 -9 -6 -7 -12z"/>
<path d="M850 2250 c-9 -6 -10 -10 -3 -10 6 0 15 5 18 10 8 12 4 12 -15 0z"/>
<path d="M3616 2223 c9 -36 10 -38 16 -16 3 10 -1 24 -9 32 -12 10 -13 8 -7
-16z"/>
<path d="M2895 2230 c-3 -6 1 -7 9 -4 18 7 21 14 7 14 -6 0 -13 -4 -16 -10z"/>
<path d="M3490 2220 c-13 -8 -12 -10 3 -10 9 0 17 5 17 10 0 12 -1 12 -20 0z"/>
<path d="M1515 2210 c-3 -5 1 -10 10 -10 9 0 13 5 10 10 -3 6 -8 10 -10 10 -2
0 -7 -4 -10 -10z"/>
<path d="M2670 2200 c6 -11 13 -20 16 -20 2 0 0 9 -6 20 -6 11 -13 20 -16 20
-2 0 0 -9 6 -20z"/>
<path d="M3440 2200 c0 -5 5 -10 10 -10 6 0 10 5 10 10 0 6 -4 10 -10 10 -5 0
-10 -4 -10 -10z"/>
<path d="M1730 2139 c0 -8 18 -30 40 -48 46 -38 50 -60 19 -123 -37 -75 -41
-86 -37 -100 6 -16 78 138 78 168 0 8 -22 39 -50 67 -28 29 -50 45 -50 36z"/>
<path d="M1097 2117 c-3 -7 4 -19 14 -25 10 -7 18 -15 17 -20 -3 -9 71 -132
91 -152 9 -8 22 -27 30 -41 7 -15 37 -53 67 -85 30 -32 54 -61 54 -66 0 -4 5
-8 10 -8 19 0 10 20 -23 53 -45 44 -107 122 -107 134 0 5 -9 18 -19 27 -11 10
-39 51 -63 92 -23 41 -46 74 -50 74 -4 0 -5 7 -2 15 4 8 2 15 -4 15 -5 0 -12
-6 -15 -13z"/>
<path d="M2098 2042 c2 -48 -1 -112 -8 -142 -6 -30 -12 -64 -13 -75 -1 -10 -8
-27 -17 -36 -8 -9 -28 -31 -44 -49 -17 -18 -43 -37 -58 -42 -15 -6 -28 -14
-28 -18 0 -17 59 12 90 43 61 62 67 73 80 132 14 61 23 226 14 258 -12 41 -19
11 -16 -71z"/>
<path d="M948 2093 c7 -3 16 -2 19 1 4 3 -2 6 -13 5 -11 0 -14 -3 -6 -6z"/>
<path d="M1448 2078 c-10 -29 11 -62 95 -146 78 -80 87 -93 87 -126 0 -42 -13
-72 -44 -98 -17 -15 -32 -18 -74 -14 -30 3 -64 12 -77 20 -13 9 -26 12 -29 7
-8 -12 32 -30 84 -39 51 -9 90 -5 90 9 0 5 5 9 11 9 34 0 65 90 47 140 -5 16
-48 67 -94 114 -72 74 -83 90 -78 111 6 25 -10 36 -18 13z"/>
<path d="M986 2018 c20 -34 39 -65 43 -68 14 -9 80 -159 105 -240 14 -44 27
-106 28 -138 l3 -57 1091 0 1091 0 2 54 c0 30 6 72 12 95 17 62 81 221 90 224
5 2 9 9 9 16 0 6 10 27 23 46 13 19 36 58 51 85 l27 50 -25 -28 c-14 -15 -26
-35 -26 -43 0 -8 -4 -14 -8 -14 -7 0 -77 -107 -77 -120 -1 -3 -6 -14 -12 -25
-24 -43 -74 -211 -80 -266 l-6 -59 -1072 0 -1072 0 -7 66 c-4 36 -11 73 -16
82 -11 21 -35 114 -32 125 1 4 -2 7 -7 7 -5 0 -14 15 -21 33 -20 52 -44 101
-58 117 -8 8 -26 37 -40 64 -15 27 -33 51 -39 54 -7 2 3 -25 23 -60z"/>
<path d="M3312 1978 c-33 -51 -69 -104 -79 -117 -23 -31 -115 -121 -144 -142
-20 -13 -20 -16 -5 -16 22 0 145 121 183 180 16 23 36 51 46 61 9 11 17 23 17
27 0 4 6 14 13 21 15 16 39 69 34 74 -2 3 -31 -37 -65 -88z"/>
<path d="M2390 1991 c0 -80 26 -172 66 -230 33 -49 30 -32 -8 48 -25 52 -33
84 -38 153 -8 109 -20 126 -20 29z"/>
<path d="M2686 2049 c-7 -16 43 -151 71 -194 13 -19 13 -19 13 3 0 12 -4 22
-9 22 -4 0 -14 21 -21 48 -7 26 -17 53 -23 60 -5 6 -13 27 -17 45 -5 24 -9 28
-14 16z"/>
<path d="M3050 2050 c0 -7 -36 -49 -80 -92 -44 -44 -80 -84 -80 -89 0 -15 31
11 109 93 58 61 72 81 63 90 -9 9 -12 9 -12 -2z"/>
<path d="M1752 1828 c7 -13 13 -25 13 -28 1 -7 38 -63 50 -75 23 -24 61 -45
80 -44 14 0 15 2 5 6 -46 16 -93 61 -116 110 -14 29 -30 53 -35 53 -5 0 -4
-10 3 -22z"/>
<path d="M2735 1811 c-3 -16 -13 -35 -21 -41 -7 -7 -11 -16 -8 -21 3 -5 0 -9
-7 -9 -6 0 -20 -9 -30 -21 -27 -31 -89 -36 -139 -10 -22 11 -40 16 -40 10 0
-20 73 -41 123 -36 37 3 56 12 81 36 30 29 64 106 53 118 -3 2 -8 -9 -12 -26z"/>
<path d="M2867 1819 c-5 -18 7 -69 16 -69 1 0 2 20 2 45 0 48 -9 59 -18 24z"/>
<path d="M2902 1710 c14 -22 56 -34 108 -31 61 4 54 18 -8 17 -44 -1 -65 4
-79 17 -26 23 -36 22 -21 -3z"/>
<path d="M1172 1335 c3 -3 486 -7 1074 -8 l1069 -2 -1 -77 c-2 -106 14 -99 18
7 l3 85 -1084 0 c-596 0 -1082 -2 -1079 -5z"/>
<path d="M1182 1244 c1 -28 -2 -56 -6 -62 -6 -10 230 -12 1059 -12 687 1 1063
4 1060 11 -4 6 -384 9 -1048 9 l-1042 -1 -7 42 c-11 65 -17 70 -16 13z"/>
<path d="M1070 886 c0 -2 7 -7 16 -10 8 -3 12 -2 9 4 -6 10 -25 14 -25 6z"/>
<path d="M2018 4293 c7 -3 16 -2 19 1 4 3 -2 6 -13 5 -11 0 -14 -3 -6 -6z"/>
<path d="M1957 4221 c4 -3 10 -10 14 -14 3 -4 11 -2 17 5 8 10 5 13 -15 14
-13 1 -21 -1 -16 -5z"/>
<path d="M2612 4177 c10 -8 15 -17 11 -21 -4 -4 1 -4 10 0 20 7 20 7 -13 23
-22 11 -23 10 -8 -2z"/>
<path d="M2825 4081 c-3 -5 -2 -12 3 -15 5 -3 9 1 9 9 0 17 -3 19 -12 6z"/>
<path d="M1578 4013 c7 -3 16 -2 19 1 4 3 -2 6 -13 5 -11 0 -14 -3 -6 -6z"/>
<path d="M1400 3972 c0 -6 -8 -13 -17 -15 -16 -4 -16 -5 -1 -6 18 -1 34 16 24
26 -3 4 -6 1 -6 -5z"/>
<path d="M1305 3920 c-3 -5 -1 -10 4 -10 6 0 11 5 11 10 0 6 -2 10 -4 10 -3 0
-8 -4 -11 -10z"/>
<path d="M3130 3926 c0 -2 9 -6 20 -9 11 -3 20 -1 20 4 0 5 -9 9 -20 9 -11 0
-20 -2 -20 -4z"/>
<path d="M1010 3732 c0 -12 19 -26 26 -19 2 2 -2 10 -11 17 -9 8 -15 8 -15 2z"/>
<path d="M3416 3711 c-17 -6 -17 -8 -4 -14 10 -3 19 0 22 9 3 8 4 14 3 13 -1
0 -11 -4 -21 -8z"/>
<path d="M1040 3690 c8 -5 20 -10 25 -10 6 0 3 5 -5 10 -8 5 -19 10 -25 10 -5
0 -3 -5 5 -10z"/>
<path d="M900 3656 c0 -2 7 -7 16 -10 8 -3 12 -2 9 4 -6 10 -25 14 -25 6z"/>
<path d="M3567 3626 c-16 -13 -16 -14 0 -27 15 -12 16 -12 10 5 -5 13 -3 17 7
13 10 -4 13 -1 9 9 -3 7 -6 14 -7 14 0 0 -9 -7 -19 -14z"/>
<path d="M869 3613 c-13 -15 -12 -15 9 -4 23 12 28 21 13 21 -5 0 -15 -7 -22
-17z"/>
<path d="M906 3605 c-11 -8 -18 -17 -15 -19 2 -2 15 4 28 15 27 22 15 26 -13
4z"/>
<path d="M3700 3580 c0 -5 5 -10 11 -10 5 0 7 5 4 10 -3 6 -8 10 -11 10 -2 0
-4 -4 -4 -10z"/>
<path d="M3685 3540 c-3 -6 1 -7 9 -4 18 7 21 14 7 14 -6 0 -13 -4 -16 -10z"/>
<path d="M3726 3535 c-11 -8 -15 -15 -9 -15 6 0 16 7 23 15 16 19 11 19 -14 0z"/>
<path d="M391 3194 c0 -11 3 -14 6 -6 3 7 2 16 -1 19 -3 4 -6 -2 -5 -13z"/>
<path d="M412 1360 c0 -14 2 -19 5 -12 2 6 2 18 0 25 -3 6 -5 1 -5 -13z"/>
<path d="M520 1039 c0 -5 5 -7 10 -4 6 3 10 8 10 11 0 2 -4 4 -10 4 -5 0 -10
-5 -10 -11z"/>
<path d="M3800 1026 c0 -2 7 -9 15 -16 13 -11 14 -10 9 4 -5 14 -24 23 -24 12z"/>
<path d="M3638 913 c7 -3 16 -2 19 1 4 3 -2 6 -13 5 -11 0 -14 -3 -6 -6z"/>
<path d="M3605 889 c-11 -17 1 -21 15 -4 8 9 8 15 2 15 -6 0 -14 -5 -17 -11z"/>
<path d="M814 876 c11 -9 23 -16 27 -16 14 0 19 19 8 26 -8 4 -9 3 -5 -4 9
-15 1 -15 -27 -1 -21 10 -21 10 -3 -5z"/>
<path d="M1387 569 c7 -7 15 -10 18 -7 3 3 -2 9 -12 12 -14 6 -15 5 -6 -5z"/>
<path d="M1490 533 c-13 -15 -12 -16 4 -10 10 4 20 7 22 7 2 0 4 5 4 10 0 15
-13 12 -30 -7z"/>
<path d="M2865 450 c-3 -5 -1 -10 4 -10 6 0 11 5 11 10 0 6 -2 10 -4 10 -3 0
-8 -4 -11 -10z"/>
<path d="M1616 405 c10 -8 23 -15 28 -15 6 0 1 7 -10 15 -10 8 -23 15 -28 15
-6 0 -1 -7 10 -15z"/>
<path d="M2704 378 c10 -6 22 -6 26 -2 5 5 -3 10 -18 11 -22 1 -24 0 -8 -9z"/>
<path d="M2660 376 c0 -2 7 -7 16 -10 8 -3 12 -2 9 4 -6 10 -25 14 -25 6z"/>
<path d="M1940 230 c-9 -6 -10 -10 -3 -10 6 0 15 5 18 10 8 12 4 12 -15 0z"/>
<path d="M2148 103 c7 -3 16 -2 19 1 4 3 -2 6 -13 5 -11 0 -14 -3 -6 -6z"/>
<path d="M1298 4023 c7 -3 16 -2 19 1 4 3 -2 6 -13 5 -11 0 -14 -3 -6 -6z"/>
<path d="M4050 1000 c-9 -6 -10 -10 -3 -10 6 0 15 5 18 10 8 12 4 12 -15 0z"/>
<path d="M577 919 c7 -7 15 -10 18 -7 3 3 -2 9 -12 12 -14 6 -15 5 -6 -5z"/>
<path d="M3084 444 c-18 -14 -18 -15 4 -4 12 6 22 13 22 15 0 8 -5 6 -26 -11z"/>
<path d="M2040 60 c-9 -6 -10 -10 -3 -10 6 0 15 5 18 10 8 12 4 12 -15 0z"/>
</g>
</svg>
