<?xml version="1.0" standalone="no"?>
<!DOCTYPE svg PUBLIC "-//W3C//DTD SVG 20010904//EN"
 "http://www.w3.org/TR/2001/REC-SVG-20010904/DTD/svg10.dtd">
<svg version="1.0" xmlns="http://www.w3.org/2000/svg"
 width="450.000000pt" height="225.000000pt" viewBox="0 0 450.000000 225.000000"
 preserveAspectRatio="xMidYMid meet">
<metadata>
Created by potrace 1.10, written by Peter Selinger 2001-2011
</metadata>
<g transform="translate(0.000000,225.000000) scale(0.050000,-0.050000)"
fill="#0000ff" stroke="none">
<path d="M1274 3704 l-74 -76 0 -960 0 -960 76 -74 76 -74 270 0 270 0 76 78
76 78 -7 262 c-4 144 -2 262 3 262 6 0 163 -153 350 -340 l340 -340 271 0 271
0 75 77 75 77 -6 543 c-3 299 -2 543 2 543 5 0 160 -155 345 -344 l337 -345 0
-201 0 -202 76 -74 76 -74 270 0 270 0 74 76 74 76 0 209 0 209 335 335 c185
184 340 335 345 335 6 0 7 -185 4 -411 l-6 -411 212 -209 213 -209 684 0 684
0 214 215 215 216 0 200 0 201 -66 64 -66 64 -354 5 -354 5 0 -76 0 -75 -272
5 -273 6 -2 275 -3 275 275 0 275 0 0 -70 0 -70 346 0 346 0 74 76 74 76 0
199 0 200 -215 214 -216 215 -679 0 -679 0 -216 -215 -215 -214 0 140 c0 137
-2 143 -76 215 l-76 74 -260 0 -260 0 -74 -76 c-70 -72 -74 -83 -74 -207 l0
-131 -141 -146 -142 -146 -138 137 -139 138 0 141 c0 138 -2 144 -76 216 l-76
74 -258 0 -258 0 -76 -74 -76 -74 -76 74 -76 74 -270 0 -270 0 -77 -79 -76
-78 9 -272 c5 -149 8 -271 6 -271 -1 0 -159 158 -351 350 l-348 350 -271 0
-272 0 -74 -76z m522 -143 c45 -1 333 -266 312 -287 -5 -5 16 -25 46 -45 73
-47 106 -81 106 -108 0 -11 14 -21 30 -21 17 0 30 -10 30 -23 0 -13 6 -18 12
-11 7 6 59 -19 115 -57 61 -41 109 -61 120 -50 10 10 30 13 45 7 16 -6 28 2
28 19 0 34 68 100 85 83 7 -7 8 9 3 35 -4 26 -3 36 3 22 13 -27 51 -35 47 -10
-2 8 -2 111 0 228 l2 212 207 3 c213 4 327 -20 301 -61 -9 -15 -5 -18 10 -8
95 59 124 -498 33 -632 -27 -40 -43 -79 -35 -87 8 -9 -5 -6 -28 6 -41 22 -41
21 -46 -472 -4 -420 -9 -498 -36 -524 -28 -27 -30 -27 -15 0 13 24 11 25 -12
8 -45 -35 -353 -31 -367 4 -6 15 -24 28 -39 28 -16 0 -34 14 -41 31 -6 18 -22
25 -35 17 -14 -9 -18 -5 -9 9 8 13 -13 39 -52 63 -36 22 -58 40 -48 40 10 0 2
18 -18 40 -19 21 -42 35 -50 30 -17 -10 -111 93 -105 115 3 8 -8 15 -25 15
-17 0 -28 7 -25 15 3 8 -4 19 -15 24 -24 12 -83 58 -133 106 -20 19 -37 28
-37 20 0 -8 -7 -5 -15 8 -33 52 -127 31 -190 -42 -71 -81 -90 -144 -99 -318
-9 -177 -29 -222 -89 -199 -15 6 -27 1 -27 -11 0 -12 -31 -21 -70 -19 -38 1
-70 12 -70 24 -1 15 -5 15 -15 1 -8 -11 -44 -23 -80 -25 -81 -6 -102 37 -97
201 2 63 -2 115 -9 115 -6 0 -8 29 -4 65 3 36 9 362 12 725 4 363 8 666 10
674 4 18 112 29 233 23 55 -3 121 -6 146 -6z m1619 -556 c-4 -107 -7 -19 -7
195 0 215 3 302 7 195 4 -107 4 -283 0 -390z m603 546 c11 -6 26 -54 34 -106
8 -52 37 -130 66 -173 29 -43 61 -92 72 -110 11 -17 37 -44 59 -60 21 -16 53
-44 71 -61 19 -17 53 -42 77 -56 24 -14 60 -36 81 -48 30 -19 52 -17 110 11
40 19 80 29 90 23 10 -6 16 5 15 24 -2 19 8 33 22 30 14 -3 25 8 25 25 0 16
14 30 30 30 17 0 30 7 30 15 0 8 36 53 80 100 73 78 134 225 104 254 -6 6 0
11 13 11 13 0 23 16 23 35 -1 30 -4 31 -22 5 -19 -27 -20 -27 -13 0 38 140
452 90 454 -55 1 -26 13 -45 31 -45 17 0 30 -13 30 -30 0 -16 18 -48 40 -70
52 -52 60 -368 10 -387 -21 -8 -30 1 -30 31 0 51 -13 43 -23 -14 -9 -51 -43
-91 -58 -67 -7 10 -65 -41 -129 -113 -65 -71 -129 -130 -143 -130 -13 0 -30
-18 -37 -39 -7 -24 -23 -35 -41 -28 -20 8 -29 -2 -29 -32 0 -24 -9 -38 -20
-31 -11 7 -15 0 -10 -14 6 -15 -14 -37 -48 -52 -35 -15 -67 -50 -80 -86 -13
-40 -29 -56 -45 -46 -16 10 -20 4 -11 -19 8 -21 3 -33 -15 -33 -16 0 -35 -10
-43 -23 -9 -15 -5 -18 11 -8 14 9 9 -9 -11 -39 -25 -39 -35 -90 -34 -173 1
-64 -6 -117 -17 -117 -11 0 -15 -7 -11 -15 24 -40 -25 -99 -85 -101 -38 -1
-57 7 -49 19 9 14 1 15 -25 2 -30 -15 -167 -20 -230 -7 -20 3 -38 82 -47 203
-4 61 -19 138 -32 170 -14 32 -23 66 -21 74 2 8 -5 15 -14 15 -9 0 -34 32 -54
70 -21 39 -45 70 -54 70 -22 0 -154 122 -149 137 2 7 0 13 -6 13 -24 1 -140
119 -140 143 0 15 -11 27 -23 27 -41 0 -95 62 -84 97 7 21 5 25 -6 10 -13 -18
-26 -17 -52 2 -19 14 -29 31 -21 38 7 7 -6 13 -29 13 -22 0 -46 14 -52 30 -7
17 -26 30 -42 30 -17 0 -31 10 -31 21 0 12 -9 16 -20 9 -13 -8 -20 84 -20 260
0 176 7 268 20 260 11 -7 20 3 20 22 0 19 6 29 13 21 8 -7 28 0 45 15 45 41
422 59 480 23z m3356 6 c13 -2 22 -9 20 -16 -4 -13 76 -94 175 -178 40 -33 52
-60 46 -94 -5 -26 -2 -43 8 -37 26 16 20 -21 -7 -48 -16 -16 -16 -24 -2 -24
29 0 27 -102 -4 -133 -74 -74 -546 -23 -549 59 -1 9 -10 11 -21 4 -11 -7 -20
-2 -20 10 0 12 -9 17 -20 10 -11 -7 -20 -4 -20 6 0 9 -103 18 -230 18 -126 1
-225 -6 -219 -15 5 -9 -6 -17 -26 -18 -67 -1 -105 -8 -97 -16 15 -15 -73 -104
-91 -93 -9 6 -18 3 -19 -6 0 -9 -5 -34 -11 -56 -16 -68 -18 -493 -2 -503 8 -5
15 -22 15 -37 0 -31 91 -130 119 -130 10 0 21 -11 26 -24 13 -41 575 -33 575
8 0 9 25 16 55 16 38 1 47 6 28 18 -45 28 -2 38 177 42 325 8 375 3 331 -31
-29 -22 -31 -29 -9 -29 65 0 21 -272 -47 -295 -30 -10 -88 -75 -81 -90 5 -8
-6 -15 -24 -15 -19 0 -27 -9 -18 -23 9 -14 5 -18 -9 -9 -13 8 -29 1 -35 -17
-7 -17 -19 -26 -28 -21 -9 5 -21 -4 -28 -21 -6 -18 -21 -26 -32 -19 -11 7 -15
22 -8 33 9 14 1 15 -25 2 -21 -11 -206 -19 -427 -17 -214 2 -406 -4 -425 -13
-21 -10 -35 -8 -35 4 0 21 -69 18 -92 -4 -6 -7 -33 -5 -58 5 -25 10 -51 13
-57 7 -14 -14 -133 38 -133 58 0 8 -14 15 -32 15 -20 0 -28 11 -21 30 8 19 -9
40 -47 60 -35 18 -65 53 -73 85 -7 30 -22 61 -34 68 -12 8 -22 136 -25 314 -2
166 -8 308 -13 317 -5 9 -15 39 -21 66 -7 28 -33 59 -58 70 -25 11 -46 31 -46
43 0 47 -30 52 -31 5 -2 -45 -3 -45 -19 -8 -24 55 -24 353 0 390 15 23 19 14
20 -35 0 -36 9 -65 20 -65 11 0 20 11 20 25 0 36 80 85 81 50 1 -14 10 -5 20
20 10 25 34 52 54 59 19 8 46 28 59 45 14 17 25 23 25 12 1 -10 22 10 48 44
37 51 52 59 73 39 14 -13 21 -15 14 -3 -14 26 5 56 50 81 27 14 1182 19 1270
5z"/>
<path d="M7580 3760 c0 -11 9 -20 20 -20 11 0 20 -18 20 -40 0 -22 9 -40 20
-40 11 0 20 13 20 28 0 16 5 43 12 60 9 24 -1 32 -40 32 -29 0 -52 -9 -52 -20z"/>
<path d="M7700 3714 c0 -52 8 -65 40 -65 22 0 40 8 40 18 0 10 14 7 30 -7 26
-21 30 -15 30 48 0 79 -37 98 -55 28 l-12 -43 -16 43 c-24 66 -57 53 -57 -22z"/>
<path d="M1213 1005 l4 -275 71 -6 72 -6 0 121 0 121 90 0 90 0 0 -120 0 -120
70 0 70 0 0 248 c0 137 5 263 12 280 10 26 -3 32 -70 32 l-82 0 0 -100 0 -100
-90 0 -90 0 0 100 0 100 -75 0 -75 0 3 -275z"/>
<path d="M2651 1005 l6 -275 62 -6 61 -7 0 282 0 281 -67 0 -67 0 5 -275z"/>
<path d="M3136 1000 l6 -280 59 0 59 0 0 138 c0 149 26 195 99 172 36 -11 41
-29 41 -161 l0 -149 70 0 70 0 0 139 c0 142 -24 239 -66 265 -42 27 -140 17
-177 -17 -35 -32 -37 -29 -37 70 0 103 0 103 -65 103 l-65 0 6 -280z"/>
<path d="M2880 1188 c0 -56 -7 -70 -30 -61 -22 9 -30 -2 -30 -38 0 -30 11 -49
30 -49 23 0 30 -27 30 -120 0 -146 45 -206 146 -196 78 7 104 84 35 102 -61
16 -61 204 1 220 51 14 44 87 -8 78 -27 -5 -34 9 -34 65 0 68 -3 71 -70 71
-67 0 -70 -3 -70 -72z"/>
<path d="M1842 1112 c-95 -53 -129 -183 -73 -289 53 -104 222 -137 318 -62
102 80 33 139 -78 67 -45 -30 -53 -30 -99 0 -83 54 -58 72 100 72 138 0 150 3
150 41 0 156 -175 250 -318 171z m165 -89 c41 -45 25 -63 -57 -63 -35 0 -69 6
-77 13 -17 17 45 87 77 87 13 0 39 -16 57 -37z"/>
<path d="M2253 1099 c-29 -23 -53 -55 -53 -70 0 -39 108 -38 140 1 29 35 92
40 111 8 21 -34 -14 -56 -121 -76 -144 -27 -194 -118 -110 -202 45 -45 157
-54 199 -15 21 20 28 20 35 0 5 -14 36 -25 68 -25 l58 0 0 170 c0 143 -6 176
-40 210 -56 56 -215 55 -287 -1z m207 -205 c0 -47 -52 -99 -91 -91 -58 11 -50
82 11 99 75 21 80 20 80 -8z"/>
</g>
</svg>
